<mxfile host="app.diagrams.net" modified="2023-07-17T14:55:25.522Z" agent="Mozilla/5.0 (Windows NT 10.0; Win64; x64) AppleWebKit/537.36 (KHTML, like Gecko) Chrome/114.0.0.0 Safari/537.36" etag="8UdIyLnBaYmI7Jty8oew" version="21.6.2" type="device">
  <diagram name="Página-1" id="EA0A0LOqHPsOTfhTbwby">
    <mxGraphModel dx="1434" dy="756" grid="1" gridSize="10" guides="1" tooltips="1" connect="1" arrows="1" fold="1" page="1" pageScale="1" pageWidth="827" pageHeight="1169" math="0" shadow="0">
      <root>
        <mxCell id="0" />
        <mxCell id="1" parent="0" />
        <mxCell id="zww3sfRDonu8iNrRwF99-3" value="Banco" style="swimlane;whiteSpace=wrap;html=1;" parent="1" vertex="1">
          <mxGeometry x="670" y="60" width="200" height="1080" as="geometry" />
        </mxCell>
        <mxCell id="e9mQdE9O3U6goVZSnutH-45" value="" style="group" parent="zww3sfRDonu8iNrRwF99-3" vertex="1" connectable="0">
          <mxGeometry x="47" y="690" width="110" height="80" as="geometry" />
        </mxCell>
        <mxCell id="zww3sfRDonu8iNrRwF99-40" value="" style="shape=image;verticalLabelPosition=bottom;labelBackgroundColor=default;verticalAlign=top;aspect=fixed;imageAspect=0;image=data:image/png,iVBORw0KGgoAAAANSUhEUgAAACAAAAAfCAYAAACGVs+MAAAAAXNSR0IArs4c6QAAAARnQU1BAACxjwv8YQUAAAAJcEhZcwAADsMAAA7DAcdvqGQAAAPZSURBVFhH7ZdZK3VRGMefc0wZMxUZEoUoQyhDigsl5cKFezfKF/ABfAEXckFHoYQLLhQiSsQFbsyEMkWGzPO83vV/zt7ss/c+53jfepPe91e7tfZaa6/938+0zrE8Pj6Ku7s7Cg0Npe/AqrTfxs8Q8Pb2RkII5c49v7PWIAAPa6/+/n7q6+sznXN2zc3NUWdnJ93c3DiMm4IgPDs7k/N23t/fuX1+fhbt7e1iZmaG74+Ojj7mXHF+fs7t1taWaGlpEYeHh3zvDFMBGGtsbBQbGxs8Njg4KMbHx7nvjpWVFdHb2ytub2/F1dWVaGhoEPv7+8qsEVMBXV1dYmFhge97enrE5uYm9xcXF3lTM2SciLW1NbYc9uvu7mZrnJ6e8sc4wxADOzs75OXlRenp6ez/jIwMSkhIoLGxMfLz86OAgABlpSNWq5VCQkJoYmKC+2VlZTQ8PExhYWGUk5ND09PTykodegsMDQ2J6+trsb29LUZGRnhMburWlyr39/didHSULQKLTU1N8TjcgnfpMVjAw8ODAgMDSfqScnNz6eDggO8jIyOVFZ8gPfX4+vpSYmIiyZdTWloaHR8f83h0dDTJWOC+FoMAmBFIcRQUFMQC4uPjeUwFc/X19ZSSkkKlpaW0t7enzNiJjY0lGYTcDw4OJmlRiouLIxkTPKbFIMDHx4dbb29vbmVQsu+1SJdRbW0tyeAk6SZqbW1VZuwgBhBHAM9CgL+/P728vPCYFoOA19dXh9ZisRgexFfV1NTwi2CdiooKZeYT1T0yK/ij0MK9egwCoBZAAC64QRYhHlPx9PSk5uZmCg8Pp7q6OsrMzFRm7FxeXrI4tY9MkEHMsaTHIODh4YHNHhMTQ0tLS5ScnEy7u7sfFtGivkTP8vIyJSUl0cnJCbsS65De2FOPYQdEu0wdysrKovX1daQppaam0uTkJPdVEIi4IFYF/dnZWf5tgUtWT8rLy+MPgBBYU49BAFJndXWVLi4uqLi4mIsRNkNhkucCf5UZT09PPA+3QLAs32w9xMvAwAAVFhYqKx0xCIC5ysvL+TSD7/AgTkOkVUFBgdNKiLiA1fBCrIe5UUU7OjooOzubs8AMUyfi4ZKSErLZbJxOlZWVnHL4en1KqiDCIR5xU1RUxFZoa2vjmgA3OMXsMFKRRYiPVJRklFYtWBcRESHkS5SRT+bn50VTU9PHgeYK8zBWiIqKourqaja7M9/rQf7Lfamqqorjxh0uBajk5+ebngVmwBWoCzgTvsKXBPxN/gv4uQJwSmrL8J9ixUZa9PeuQNVzVhm/ikXWcPyE/lf/nBL9Ar//s2okeehqAAAAAElFTkSuQmCC;" parent="e9mQdE9O3U6goVZSnutH-45" vertex="1">
          <mxGeometry x="67.68" width="42.32" height="41" as="geometry" />
        </mxCell>
        <mxCell id="zww3sfRDonu8iNrRwF99-38" value="Confirmar Pago" style="ellipse;whiteSpace=wrap;html=1;fillColor=#E6FFCC;strokeColor=#6c8ebf;" parent="e9mQdE9O3U6goVZSnutH-45" vertex="1">
          <mxGeometry y="30" width="110" height="50" as="geometry" />
        </mxCell>
        <mxCell id="zww3sfRDonu8iNrRwF99-1" value="Cliente" style="swimlane;whiteSpace=wrap;html=1;" parent="1" vertex="1">
          <mxGeometry x="50" y="60" width="200" height="1080" as="geometry" />
        </mxCell>
        <mxCell id="zww3sfRDonu8iNrRwF99-9" value="Datos de producto" style="whiteSpace=wrap;html=1;shape=mxgraph.basic.oval_callout;fillColor=#ffe6cc;strokeColor=#d79b00;" parent="zww3sfRDonu8iNrRwF99-1" vertex="1">
          <mxGeometry x="50" y="130" width="100" height="60" as="geometry" />
        </mxCell>
        <mxCell id="zww3sfRDonu8iNrRwF99-30" value="Datos de &lt;br&gt;pago" style="whiteSpace=wrap;html=1;shape=mxgraph.basic.oval_callout;fillColor=#ffe6cc;strokeColor=#d79b00;" parent="zww3sfRDonu8iNrRwF99-1" vertex="1">
          <mxGeometry x="52" y="720" width="100" height="60" as="geometry" />
        </mxCell>
        <mxCell id="zww3sfRDonu8iNrRwF99-7" style="edgeStyle=orthogonalEdgeStyle;rounded=0;orthogonalLoop=1;jettySize=auto;html=1;entryX=0.5;entryY=0.045;entryDx=0;entryDy=0;entryPerimeter=0;" parent="zww3sfRDonu8iNrRwF99-1" source="zww3sfRDonu8iNrRwF99-4" target="zww3sfRDonu8iNrRwF99-9" edge="1">
          <mxGeometry relative="1" as="geometry">
            <mxPoint x="100" y="130" as="targetPoint" />
          </mxGeometry>
        </mxCell>
        <mxCell id="zww3sfRDonu8iNrRwF99-4" value="" style="strokeWidth=2;html=1;shape=mxgraph.flowchart.start_2;whiteSpace=wrap;fillColor=#0D0D0D;" parent="zww3sfRDonu8iNrRwF99-1" vertex="1">
          <mxGeometry x="80" y="60" width="40" height="40" as="geometry" />
        </mxCell>
        <mxCell id="zww3sfRDonu8iNrRwF99-8" value="Inicio" style="text;html=1;align=center;verticalAlign=middle;resizable=0;points=[];autosize=1;strokeColor=none;fillColor=none;" parent="zww3sfRDonu8iNrRwF99-1" vertex="1">
          <mxGeometry x="75" y="38" width="50" height="30" as="geometry" />
        </mxCell>
        <mxCell id="zww3sfRDonu8iNrRwF99-49" value="" style="ellipse;html=1;shape=endState;fillColor=#000000;strokeColor=#000000;" parent="zww3sfRDonu8iNrRwF99-1" vertex="1">
          <mxGeometry x="82" y="940" width="40" height="40" as="geometry" />
        </mxCell>
        <mxCell id="1p00qoWbW6kCkAPDuXka-22" style="edgeStyle=orthogonalEdgeStyle;rounded=0;orthogonalLoop=1;jettySize=auto;html=1;entryX=0.5;entryY=0;entryDx=0;entryDy=0;" parent="zww3sfRDonu8iNrRwF99-1" source="e9mQdE9O3U6goVZSnutH-49" target="zww3sfRDonu8iNrRwF99-49" edge="1">
          <mxGeometry relative="1" as="geometry" />
        </mxCell>
        <mxCell id="e9mQdE9O3U6goVZSnutH-49" value="" style="shape=image;verticalLabelPosition=bottom;labelBackgroundColor=default;verticalAlign=top;aspect=fixed;imageAspect=0;image=data:image/png,iVBORw0KGgoAAAANSUhEUgAAACQAAAA1CAYAAAApikmmAAAAAXNSR0IArs4c6QAAAARnQU1BAACxjwv8YQUAAAAJcEhZcwAADsMAAA7DAcdvqGQAAARwSURBVFhH7ZlLKHVRFICX63pLBph45lnIe2hC8og8BsqjkLeIiaIYKBPKTEaiJBRhysgEGSiK8pZEnhHyfpx/r/3vc93rnnvOvvf8/Pev/6vd3nvte85ZZ5+19l5rXxuBAFaEhtVWw3+FlPivkBJGXnZ2dgZ7e3ug0Viuq7OzM0RFRbGeeRgoNDw8DEtLSxAaGmqxQjY2NrC2tgbHx8cwMTEBTk5ObIQTVAg5PDwUKisrhff3dyaxnNnZWSE3N1eoqakR7u7umJQP3TTs7++Dt7e3qk8lcnl5CbW1tZCTkwMVFRXw8PDARpTRPV2r1QKZHdZTB362i4sLyMjIgLy8PCgvL+dWSv10KFBQUADZ2dlAzIFLqW9XCCkqKoLMzEyoqqqCx8dHJpVGy2pZJicn4eDggH4KEWJ/4O7uDmVlZWBra8ukpikuLqY1MXTo7+8HBwcH2v8K1wwFBwdDbGysQYmLi4PIyEgDJZVApVJTU6G6uhpeXl6Y9Au/nU0Q5ufnhfb2dtZTx+joqEDWNNYzZmhoSCgtLRWen5+Z5JMfsaGvlJSUQFJSEl0avs7UtyhEXpRuH3KQGYKsrCxobW2Fj48PJtXbOhYWFmBmZgY6OzvpgBrGxsZgbm6O2gu7vSQuLi7Q19dHnWNkZITKuLyMfHPY2Ngw8CZ8K09PT2hqajLysuTkZLi/v4erqytZha6vr6GwsBDGx8eZhHOGdnd34ebmhvU+cXR0hPDwcLM8TYru7m5oaWmhbW63j4+PNyoRERGqlUGenp5Y64dWanPgsiF9Tk5OoL6+nvU+mZqakhxLSEiAtLQ0OqNcoA0hvAvj8vIy2pyQmJhI22KRGiOeJpDwg8qam5vpb6To6OhgLUHgmqHBwUHY2tqi9nJ6ekpl5+fnNCIUwbbUmIeHB41Ae3p6IDAwEOrq6qjcFFoSKYKfnx/rSoPhA+7SqBCGp7gM4M0bGhrYL35jaiwsLIzGRKLCcmjQ1ZXAt/T19QUfHx/w8vKiMryusbFRV/THMI7GvljEgB8VVkKDAdTt7S3r8kPsBNra2nSFh6CgINYyjcVuj6u0/pokBwn6aR0dHU1rOTRubm6A5bvY3t6mMxgSEgIkE2FS03B52cDAAGxubtKMRDTM9fV13XIvIo5NT09Tz0JHODo6osqkpKTQnA9rObgUys/PN4hbMJ5xdXWVtAkc0we3HdzVEbGWAl+mq6vL/IXxOxAXxpWVlb8TMZoiJibG+jZXLoVIME4DLjUFk8TX11d2R9Nw72Wrq6tc+ZcpME1Ht8f0WhZqTQQ5oyZvRlMW4mkWF7ze1MmK/m7P9cnwIMLe3h7s7OwsLng9z8nKv2nUPwmXQughmHWoLeitSnB5GcnVaV6m5nSN2Cukp6cr7mXcWwdJDFnLMuSuN9vLELX5F+/11mvUb29vqlZiNeg/V6eQv78/PRomn5FJfgbcUnZ2dlhP77AB6e3thcXFRQgICPgjObsS+Gg8u8TTEjwQRYz+6/jbWK9RWwcAvwBAHgAUVraakAAAAABJRU5ErkJggg==;" parent="zww3sfRDonu8iNrRwF99-1" vertex="1">
          <mxGeometry x="84" y="860" width="36" height="53" as="geometry" />
        </mxCell>
        <mxCell id="zww3sfRDonu8iNrRwF99-2" value="Recepcionista" style="swimlane;whiteSpace=wrap;html=1;" parent="1" vertex="1">
          <mxGeometry x="250" y="60" width="420" height="1080" as="geometry" />
        </mxCell>
        <mxCell id="1p00qoWbW6kCkAPDuXka-12" style="edgeStyle=orthogonalEdgeStyle;rounded=0;orthogonalLoop=1;jettySize=auto;html=1;entryX=0.5;entryY=0;entryDx=0;entryDy=0;strokeColor=#666666;dashed=1;dashPattern=8 8;" parent="zww3sfRDonu8iNrRwF99-2" source="zww3sfRDonu8iNrRwF99-11" target="baYIwXm9J0Ta56LepWmw-8" edge="1">
          <mxGeometry relative="1" as="geometry" />
        </mxCell>
        <mxCell id="xwUSxEBxOazn-H6CZx01-3" style="edgeStyle=orthogonalEdgeStyle;rounded=0;orthogonalLoop=1;jettySize=auto;html=1;entryX=0.5;entryY=0;entryDx=0;entryDy=0;" edge="1" parent="zww3sfRDonu8iNrRwF99-2" source="zww3sfRDonu8iNrRwF99-11" target="xwUSxEBxOazn-H6CZx01-1">
          <mxGeometry relative="1" as="geometry" />
        </mxCell>
        <mxCell id="zww3sfRDonu8iNrRwF99-11" value="Seleccionar Productos" style="rounded=1;whiteSpace=wrap;html=1;fillColor=#fff2cc;strokeColor=#d6b656;" parent="zww3sfRDonu8iNrRwF99-2" vertex="1">
          <mxGeometry x="122.99000000000001" y="230" width="120" height="40" as="geometry" />
        </mxCell>
        <mxCell id="e9mQdE9O3U6goVZSnutH-4" style="edgeStyle=orthogonalEdgeStyle;rounded=0;orthogonalLoop=1;jettySize=auto;html=1;" parent="zww3sfRDonu8iNrRwF99-2" source="zww3sfRDonu8iNrRwF99-13" target="baYIwXm9J0Ta56LepWmw-2" edge="1">
          <mxGeometry relative="1" as="geometry" />
        </mxCell>
        <mxCell id="e9mQdE9O3U6goVZSnutH-46" value="Si" style="edgeLabel;html=1;align=center;verticalAlign=middle;resizable=0;points=[];" parent="e9mQdE9O3U6goVZSnutH-4" vertex="1" connectable="0">
          <mxGeometry x="0.6333" y="-2" relative="1" as="geometry">
            <mxPoint x="-8" y="-9" as="offset" />
          </mxGeometry>
        </mxCell>
        <mxCell id="zww3sfRDonu8iNrRwF99-13" value="" style="rhombus;whiteSpace=wrap;html=1;fillColor=#d5e8d4;strokeColor=#82b366;" parent="zww3sfRDonu8iNrRwF99-2" vertex="1">
          <mxGeometry x="162.99" y="400" width="40" height="40" as="geometry" />
        </mxCell>
        <mxCell id="zww3sfRDonu8iNrRwF99-15" value="Más productos?" style="text;html=1;align=center;verticalAlign=middle;resizable=0;points=[];autosize=1;strokeColor=none;fillColor=none;" parent="zww3sfRDonu8iNrRwF99-2" vertex="1">
          <mxGeometry x="180" y="390" width="110" height="30" as="geometry" />
        </mxCell>
        <mxCell id="A-wrTrzy99tVwkTwBN3d-33" style="edgeStyle=orthogonalEdgeStyle;rounded=0;orthogonalLoop=1;jettySize=auto;html=1;entryX=1;entryY=0.5;entryDx=0;entryDy=0;fontFamily=Helvetica;fontSize=12;fontColor=#333333;dashed=1;dashPattern=8 8;fillColor=#f5f5f5;strokeColor=#666666;" parent="zww3sfRDonu8iNrRwF99-2" edge="1">
          <mxGeometry relative="1" as="geometry">
            <Array as="points">
              <mxPoint x="320" y="435" />
            </Array>
            <mxPoint x="190" y="435" as="targetPoint" />
          </mxGeometry>
        </mxCell>
        <mxCell id="1p00qoWbW6kCkAPDuXka-14" style="edgeStyle=orthogonalEdgeStyle;rounded=0;orthogonalLoop=1;jettySize=auto;html=1;entryX=0.5;entryY=0;entryDx=0;entryDy=0;exitX=0;exitY=0.5;exitDx=0;exitDy=0;strokeColor=#666666;dashed=1;dashPattern=8 8;" parent="zww3sfRDonu8iNrRwF99-2" source="baYIwXm9J0Ta56LepWmw-2" target="1p00qoWbW6kCkAPDuXka-4" edge="1">
          <mxGeometry relative="1" as="geometry" />
        </mxCell>
        <mxCell id="1p00qoWbW6kCkAPDuXka-16" style="edgeStyle=orthogonalEdgeStyle;rounded=0;orthogonalLoop=1;jettySize=auto;html=1;entryX=0.5;entryY=0;entryDx=0;entryDy=0;" parent="zww3sfRDonu8iNrRwF99-2" source="baYIwXm9J0Ta56LepWmw-2" target="e9mQdE9O3U6goVZSnutH-5" edge="1">
          <mxGeometry relative="1" as="geometry" />
        </mxCell>
        <mxCell id="baYIwXm9J0Ta56LepWmw-2" value="Ingresar datos de venta" style="rounded=1;whiteSpace=wrap;html=1;fillColor=#fff2cc;strokeColor=#d6b656;" parent="zww3sfRDonu8iNrRwF99-2" vertex="1">
          <mxGeometry x="122.99000000000001" y="495" width="120" height="40" as="geometry" />
        </mxCell>
        <mxCell id="1p00qoWbW6kCkAPDuXka-17" style="edgeStyle=orthogonalEdgeStyle;rounded=0;orthogonalLoop=1;jettySize=auto;html=1;entryX=0.5;entryY=1;entryDx=0;entryDy=0;exitX=0.25;exitY=0;exitDx=0;exitDy=0;strokeColor=#666666;dashed=1;dashPattern=8 8;" parent="zww3sfRDonu8iNrRwF99-2" source="e9mQdE9O3U6goVZSnutH-5" target="1p00qoWbW6kCkAPDuXka-4" edge="1">
          <mxGeometry relative="1" as="geometry" />
        </mxCell>
        <mxCell id="1p00qoWbW6kCkAPDuXka-20" style="edgeStyle=orthogonalEdgeStyle;rounded=0;orthogonalLoop=1;jettySize=auto;html=1;entryX=0.5;entryY=0;entryDx=0;entryDy=0;" parent="zww3sfRDonu8iNrRwF99-2" source="e9mQdE9O3U6goVZSnutH-5" target="e9mQdE9O3U6goVZSnutH-47" edge="1">
          <mxGeometry relative="1" as="geometry" />
        </mxCell>
        <mxCell id="e9mQdE9O3U6goVZSnutH-5" value="Cobrar Venta" style="rounded=1;whiteSpace=wrap;html=1;fillColor=#fff2cc;strokeColor=#d6b656;" parent="zww3sfRDonu8iNrRwF99-2" vertex="1">
          <mxGeometry x="122.99" y="650" width="120" height="40" as="geometry" />
        </mxCell>
        <mxCell id="e9mQdE9O3U6goVZSnutH-47" value="" style="shape=image;verticalLabelPosition=bottom;labelBackgroundColor=default;verticalAlign=top;aspect=fixed;imageAspect=0;image=data:image/png,iVBORw0KGgoAAAANSUhEUgAAADIAAAA4CAYAAAC/pKvXAAAAAXNSR0IArs4c6QAAAARnQU1BAACxjwv8YQUAAAAJcEhZcwAADsMAAA7DAcdvqGQAAAimSURBVGhD1Vpbb1TXFV4znvEd8DgUNxSJIlqFmCiFAlJaqTJBtA/FSPwEnkCQAjF5iKgaJVyeQc0Lb1we0hfTRyRAtUEQioRA3GKwRQQ0IGSMx/g+Hs/ldH3rnDWzz5kzZy6elPRDH2efvffZe317rX05ZxyyGORgeHSc6uvrqaGhgax0xsklCoVCTspGKPeED8Luuibq6yM0OztH6XSa71Av31BQm1mul3XSgGEyLXtnsVxdQiampmhiYoIeP/6eonURJ3fhwDhks1mamUlQV1cX1dWFaW4uyQbZZdCTFWHFYeo0hSxtXyRXl5Cp6Wnq6/sXffjhb+id9hh3rkWWdFotYGwoFKZDh/5KbW0xOnr0CM3Pz1MqlUKp1MlaYbn6wTTci/ZYq1xdQh4MfCeN/3bdeientjh8+CidOHGCDh48SF988TdKJpMsCGKChcCbJsxQj7W1yNX1NGIXcwTAw8pq4R1JtLV06VI6e/YsHTlyhKJRZz5yNRgXxFJwCQmH87dqRDmN+EGfN8WkUvPS3pIlS+j06TN07NgxikTqqLGxQcpNw2GL2TfuTZplQFF/mo1WChhvUhEO17FXLJ7sdRSLxejUqVP01VeH+T7EYhAJ+T5NquF+VJQUUim8IpRAJpPh8E1JuzAOYr755h/05Zcshi1pair0jB/NOgqXkEgkIgTMSguFCunq+oOM/suXLygef03j42McbnP09dd/p08++QvNzkyKoAyLzWZSZGV5v7Eysq6p4SYxGArXqjXw6KEUvv/eGienOpheALRj4Nq1a3T37l2Z5IDWHR4eoQ0bNlB3958pkUiK9+QJUYHB9R/Y1hZ7cSpYftHhB51rnZzq4RUCYO/QVdGL2dlZ+vbb6/Txx1tkWc6DB4HnVjEhLc1RubpCC5uWaYAfUI5lFFcQI+e3RKsXVAQAEfqcF9O8GWMR0HDJpy2nDX8hCpeQMJ+T8C8IapgapB1itEHsRSYh1KTuTUhrnWw2w3PFrmtZWWkTaG5u5BCsdwZEsnL9KhWu0Ho4+IgnWZY+WFs6tGAMBLx584YGBgbkPhqNijEK0xtemEagnampGT7njdPKlSvlHAZPDA+/oq1bt1KMj0tzc2i30JsaWlUJgbEwEh64fPkyrVmzhlasWJETVylgAsIaEZFO8/GRj8LwyuefH6IffvgPnT5zhg1uotkETs1uNDfZq6x7jvBtqdACYKw9ilPU2tpKq1atEm9gJcK1UmLuRKMRMb6hwb5HuqPjZ3T+/Hk62NPDi8GMY3SK3xQyOSoKhOD/UtCQgZig8KkWGiSYPx0dy6i/v48+/bRHFoTmpibuEzbYVHgme97InwKwOcMz7e3tdOHCBdq/f79EATwPO01bXUIqxcjICD19+tS5qz0wF0G8WixfvpyuXLlC+/btk5c/eynPL/suIbZH86sCXBzEZ8+e8XHjpW9ZtQR0pCEARAgjzPAKcPXqVdq7d6+slg0NjVIPCPSIX0cmtQ52YtBbXg2xEuoSvm3bNgmr0dFRGhsbE+ObeI5cvHiRdu7cSS9evJB6gGv5HRp6zI2kqbPzfbk39wQ/oMH79+/Tnj175B4r2EKBcG1paaFFixaJZ4aGhujmzZsiEkAe5g4iYfXq1bRjxw473y1kSFy41tlHkA7CpUuX6N69eyIkkUjQuXPnnBIb2Fu2b9/u3JWH169fy4BASCncunWLNm7cKGnPqhXOHQ8AaCxFrff8+XNZVfr6+grKKqHCzMNGa5YBWIrNiAkUUg22bNkiHgK7u7ud3MpgilCqGNAPLiHmi5X5YBAV3nS1BMz9QfMAM+2FS4jZAGB24EdvHaC/v59OnjwpvH37tqu8HCpgi2mP994LlxDEnE5whNnbhBqtAkz6wWUtwsmcQH4j5qXWU2zevJl2794tXL9+fUH9UjRRjgBFgUcg5qeEckQAgfHjN2Jeaj0T3jqVsFosSIjWAXCUOH78OG3atKmgXiWsFkWF+HXiR62Lj227du2idevWFdSphNUA57OaeKSWrAY40gd65P8JNZvstWIlMBczl5CsFcLnMEljQ/TryEsTfuWVsloEemTx4sXCmZkZX+L9eXx8XI7woOaZ5Zoul9UiUIgCL/t+1JMyJpsf/Z4ph+WfwI3YYnfm8OC7h9bDR4POnRu84xewt7fX6unpsSYnJ4VmPU3XGtomv49YN27ckDTg8kgs1kavXo04d26YZx6l38FSyzRdC7DxcnzyHqHYfifFfUGNk6Z0JkusklMW/bxjGT9kVMzZhM+aaflCiG9NT548kR82Abyemh2ZohYCfEmBmQg5DB7axHx68OA+ffTR76SOa0gTiTl+B95E7777C0om8aXcYmaF8yklRgXv86UPl+jcHLVqgOdhvH6sMwfG1TJXzGFiMmFNTs1Zc8mslUpbRZnJ2PV7e//Jc+SzgjnCIWCx14RIa1xXCjzH3vB9fnp6yrp+/d/OnWeOKODKZDKIGZpPsqdSeAlb2Ij7ge2SEMVVQ6kUii6/aKQY+T+n1o8D9IF5iGuQCLOkQAge1tEA0JC3MZRrHf1YoUBdjKLJckbUBOpjMQl6FubBBoVLCAxTeu9N2mXEK8bv6Y9b/yT3XsCASgWYKOd52xIbRYXoiPtRUR+tp8bGxtzIv02U7RETvC7xaPBkxw/6PGj4Vtvc3PIjTPtgmH/jVnQYVYA5XwDJl79p4/1EBDn5TGP/XBDKDUmzv6Ie8VInuIKzpENe7Z0cRo2ElALssXf5vOCyheSJnT5tvyfzvMBRgXPFzfg7kv8FMIB4fcDfRypcZ6342JRcS7kWPx9DEJbIwcFBPmgOU3usneoifPy2+Nl8kyJ+wTDsQSqdzlA8PkadnZ30q1//0s43hYzGJ+WKkQ4ywF6g7HKIicfj8mKF38rtn7jzqIUQsw1NtrUtocamJr7afwqISm8NBw4csO7cuSPnqYXBsv4Lvt7cf2fR/SQAAAAASUVORK5CYII=;" parent="zww3sfRDonu8iNrRwF99-2" vertex="1">
          <mxGeometry x="157.99" y="780" width="50" height="56" as="geometry" />
        </mxCell>
        <mxCell id="zww3sfRDonu8iNrRwF99-12" value="" style="shape=image;verticalLabelPosition=bottom;labelBackgroundColor=default;verticalAlign=top;aspect=fixed;imageAspect=0;image=data:image/png,iVBORw0KGgoAAAANSUhEUgAAADcAAAAtCAYAAAAKlvO7AAAAAXNSR0IArs4c6QAAAARnQU1BAACxjwv8YQUAAAAJcEhZcwAADsMAAA7DAcdvqGQAAAv2SURBVGhD7VnZb1xXHf7uvbN4Zjxjj51437I6ruM0raOkkASJBgF9g5TSgkIDVPwBIFUqeQJekJAq8USBF1QkoA1VEai0USsloS0yjUrVNFsTx/G+jGfsWe3ZZ/h9Z+akdjx2JilSQ8QnHd+Ze86c+/vOb782igLcpzDL1/sS/yf3vwqjUCjcdz5nGEbper8FFNKpilwqncbJl/+E0Ow0ZmZnMTi4D9/6znfLs/cmqiYXjyfw1FPfRHB2CsuxGDpb2/C7l/+MZrnqDe41rCS3YUCx22148cXf4xfP/xJ7HxrExMQkhoeHkS8UkM1mIf5aXnlvoiI5Ck3heQLeujoc+Pxh/OjZ5+DftAkjIzdkLofl5WWEw2F1vVexxixJLJVKIZ/PKxVzslg0EI9G8c7Z0+jp6UJHVxdMu1PWFFCQde3t7XA47KUN7hIrzenTYEOzTCaTShtpCSYkmZLPyeU4Mtk0PPV1ePONNzAzNYlURuZlRGNxLCyGy7++O2iBeM3lcv81c1+lOW4aDAaV1vR3/aCMmOlHH36IsWsfY/DAfjRKUEHRRDolpD0e9PbuwKc593ffPouTL/0RpmWDZXfA6/Whvr4efn8DLJsdXV2daG5uhtfnRZ2vTj2zElZqbhU5ampWQr4Gp/RinuiVK1fgthnwNzQgZ1pw1tQim87ILsBDD+2F3WaVf1kt9KMN/PTnz+P1s0Pw1ci3XBpmPguH7JdJLcMy8nDUuMTObPDIM2tra9HW3oYdux5A38CD2NPfB9MsEVqXXCKRkIg4oSY5qDVeNcmxsTFEQgHs27sbk3ML8DW2IJfNqOCzb98gPG4R4I5Aq6DfpvH9n72K15Z2wmsrwJNdhDMXg5WJwpaPwZaNwiXPMVJyLxcB8ilkM8tw2E2ExS1+/avfYmD3brXjSnKrfI43M5mMGtSivnLQF6m9QGAOra2tyInpBkNBtYb+mZe5O4WIIX9tiEaTGI8aqLHbkbOciLtaEfD1YarpCzK+jMnWr+Fq95MY3nYMo9u+h6ltxxHqPY7E5kdEw0U4bZUz2qq7NTU1ijnJUBscWviU+Nb58+fR2Niocl0ul0VMIiiDD0nfHUonHFiMIZR1w1YswCqIv0sUtvI5ODMJ2HJ5GHkbTPq/EE85mxDxbEOwfhBBWyfq6xrR3ib+XwGryFmWpQiSEIMKyVFwXqPRCCanphBcjCASiYhfpPD+e0NYWk7KgRRgE6e/U5SoATOBecSZVgyn+IkBUw7YlHqemi3Iorwpc0WbPMeCxFL5nJZ1GdjCo2hp9sPjqy/vtBpr9NnAYFEmxCsHidIsXeLU0eUsQtElOFxePLB7QDkyzdntlkhQxgo3rgqTQUk1hkPYFlA0hJQQ4ihB/J6+KUGFn0ncgAV7MQsszaOlpaO0rALWkNskVYjTKXYfjytz5KAm7eIP9ZLn/L5aZCTvXbt8QSJZElHRIsP1uJRmk5OTiEkNqguA24NrikJO/NliaK/WvC04kEJxeQ7beraW763FGnI0zf7+fhUpWV6RJKMoNddG2xafoNZq6xpUTmT9uWegX2zfJ+uWcPLkK0Jy6mbE2hhUUUbIJZB31Mq3Un69HcRWYIpFmakwOrd0le+uxRpyRJ3UkwcPHhQ/silSS0tLInhcmWhB7OXytVGMzQRx8NBhfPupJ1VC5W/6+nbh2LFjKppWi4z4bGBJfEx8VpJO+e7G4LnZU1HJuUBLZ+VgQlQkR/j9fjz88MPKTOmHrBiczhrRrKm0+/jRr+PIkUelepAnKFCwggQkhxrVIhSOYzIhZmYr0qPKdzdGwZD1iWn45FCbW+6CHH3GNE2lBRIk2ToxPZZEjY1+iZ7Rm6XZavBe9QFleiGCcEYCBE20SnIwTBjJEJrqa+EXedbDurstLi4qk3S73fD5fIogfa6np1uZ3+LigirHdB2q/Edtp0d1mJgPI1MQYaVOre538hyJnMl4EN1ikpZocT1U3I2+xahHn2OUpE+RXJe0Or29vdi1axf27t2rzHN6enoFwTvH9HwCWdONnKQAyWilmxugKFpz5iQAxeak9eop362MiuQYHWlyFJ5Rj+ZJog6HQ33mPc6xgGWFwoh6O6xnqFOS41Djkz1JrJS4ifWDiwFHIQkrHUNHtyZXeW1FcsxthPYp+h8/U6NM7ivzGDXLw7gdKPKtIhSyKYwu5pBxeGHnYUoktsrao4ZWoigHSsImw052CS4jjbbu7vLkHZBTIV8eRgKakE7ounLRpkht6kS/PvhwrRPKUhKGjW4qNIHNyTH5ZiJruZERE80bEoFvIadhSKtlLgXhcdnQ2d5evql3Xo11yVF4EuRVvy9hviMJPa8jKs2UPloJKali5oILGJkM4Pr4NEKRuFpPLEZiMOf/je0zf0Dn1EvYGvg7WmMX4ZWWhyjY3NIPSxxVai9FYaYLIxFAc0M9GiRqE58c22qsIqdPVJsgCfBKQqFQSJVX7BioqZUE+f5E+6lGTgphvn4ICrF4YlmIRHBl+AZOnX4X56/dUGuC8wHMz07CnY+iLXUVHaEz6J7+C7ZMvYqOiVdQN3cGnuSkkBNNiunmTJdERymcY7NSMG+Srr1Uz1amJvdFuDUGy4aVqYBBhNPUHDuB0dFRbN68GTt37lQBhSbJwXUka4gpcf2ikJqQgyBhu8wZot20tC4FmU9l8qrD2N7Vhnf+cQav/e2v8NT64JLCu0FSjttFbdkwNjqGdDINq1FMz98Ky9uDZEM/4GtB4V+/wQ++shM/fPZEWeJPwOdry6hIbmZmRr1uYLDQmiPBQCCA8fFx7Jaul2mBpNgikaDd7hDTjOPUqVOq30vLb6hJ/tZhtyT5l1oTw7KjzudVXkhrGL5yCcNXr6qDyIk/ezxuqYj8SKWl+5DqxSs1lllIoyjlWY2/GZ5NbYiNX8WPn3sOR48eLQm8AivJWT8RqE8rwKCxsLCgFnGxHhSWiZ0aZNNKYlxDvyN8IjQP5dKli6hxudRa5sgm0bZLvi8s0JeKaGpqRv/AAA488jk89tXH8MVHv4TevgF4pQoKhxexMD+HdCqOrJGDJVpMJKR/E9/zQPrMeASpZArHnn563SZ1Q83Rry5evKgIEbxSAwwaDCx8l0KtHTp0SFUwbJFIlJrmGBkZwdDQe5idm1NlWlA0RDP+xuOP49Dhw1IkO9R3OotLzsXl9ojZFhEIseq5hKF33xazHMGYWEk0HEFR/DebEwuQZ7D7Zyl4+vRp5SK3grJuSI63Ll++fDN/8buOmkzY9EcGF75q27NnjyLHUTJPMR9qVEI2X00wwtISiI6OUmNZkLbJknmmbIc0u6l0Blcl2ISiMdhr3IjLc2yWmPlCGDOTo/j4ykeYnhpHt+Q17sd9Tpw4IY1qi9pvJW5LjqB2aGI0OS7R/sPNGVyoQZJkYb1161alSa4luVJlY6mOwel0qG7CxntChPNFIUeC/Nfgufc/xOun3sS16zdgl7VNIvCDgwekju1Avd2J5HIE42PD4o9JVRGxDOTYv3+/6lZuRVXkdPDgQhLjoAboR9QoNUgz5ZW9HB/Iea1FfSD8PV9FmEy+Qp7EeUiMyENDQzhz9p/Ytn07ekQrJNfe2anMbYn7hxfUoXlrvejf3ade23fKPP19PVRFjr5C39FCanL6VR9NlCR1mmhqasKABAkKfP36dSUA/ZGHwUPglXsQurunGe/csUv5EAWKx6OiYSiybK3q/Y3YsWO7mP9a81sPVZHjw0lOE9PkeOpM4jqZa+HpZ88884wiS4Lnzp1TUZUgURIhqAnuRQG4R2d7BxrFvChEW0e7tFQ9aBJfdsl+n4CzJYFvh6rI0bfodwwkHBSIOY8ENUkOrUWuf+KJJ25GMG77wQcf4K233lJpxev1qgDAg+BamteWLVvQKcGhWe5zfi20aNURI6oiRyHod7oE01cS41Und61FBpcjR45gu5jUrZiTlEBT5XqaL6NeZTKfHlWRo6boG9okKRiJ6bpSE+V9mibfhB04cEAJ/lliFTnRyBpyJENT45XgD7R5cmjC7MIvXLiAw5KYSVK/ivgsoYkRhpx+Rc1VixdeeEFFxePHj6tgce8A+A+rImmxLI2yWAAAAABJRU5ErkJggg==;" parent="zww3sfRDonu8iNrRwF99-2" vertex="1">
          <mxGeometry x="224.1" y="200" width="48.89" height="40" as="geometry" />
        </mxCell>
        <mxCell id="1p00qoWbW6kCkAPDuXka-3" style="edgeStyle=orthogonalEdgeStyle;rounded=0;orthogonalLoop=1;jettySize=auto;html=1;strokeColor=#666666;dashed=1;dashPattern=8 8;" parent="zww3sfRDonu8iNrRwF99-2" source="A-wrTrzy99tVwkTwBN3d-14" target="zww3sfRDonu8iNrRwF99-11" edge="1">
          <mxGeometry relative="1" as="geometry" />
        </mxCell>
        <mxCell id="A-wrTrzy99tVwkTwBN3d-14" value="&amp;lt;&amp;lt;Datastore&amp;gt;&amp;gt;&lt;br&gt;Producto" style="rounded=0;whiteSpace=wrap;html=1;fillColor=#f5f5f5;fontColor=#333333;strokeColor=#666666;" parent="zww3sfRDonu8iNrRwF99-2" vertex="1">
          <mxGeometry x="310" y="170" width="100" height="40" as="geometry" />
        </mxCell>
        <mxCell id="1p00qoWbW6kCkAPDuXka-11" style="edgeStyle=orthogonalEdgeStyle;rounded=0;orthogonalLoop=1;jettySize=auto;html=1;entryX=1;entryY=0.5;entryDx=0;entryDy=0;strokeColor=#666666;dashed=1;dashPattern=8 8;" parent="zww3sfRDonu8iNrRwF99-2" source="baYIwXm9J0Ta56LepWmw-8" target="baYIwXm9J0Ta56LepWmw-2" edge="1">
          <mxGeometry relative="1" as="geometry">
            <Array as="points">
              <mxPoint x="360" y="515" />
            </Array>
          </mxGeometry>
        </mxCell>
        <mxCell id="baYIwXm9J0Ta56LepWmw-8" value="&amp;lt;&amp;lt;Datastore&amp;gt;&amp;gt;&lt;br&gt;Detalle Venta" style="rounded=0;whiteSpace=wrap;html=1;fillColor=#f5f5f5;fontColor=#333333;strokeColor=#666666;" parent="zww3sfRDonu8iNrRwF99-2" vertex="1">
          <mxGeometry x="310" y="340" width="100" height="40" as="geometry" />
        </mxCell>
        <mxCell id="1p00qoWbW6kCkAPDuXka-4" value="&amp;lt;&amp;lt;Datastore&amp;gt;&amp;gt;&lt;br&gt;Venta" style="rounded=0;whiteSpace=wrap;html=1;fillColor=#f5f5f5;fontColor=#333333;strokeColor=#666666;" parent="zww3sfRDonu8iNrRwF99-2" vertex="1">
          <mxGeometry x="22.990000000000002" y="550" width="100" height="40" as="geometry" />
        </mxCell>
        <mxCell id="1p00qoWbW6kCkAPDuXka-23" value="" style="shape=image;verticalLabelPosition=bottom;labelBackgroundColor=default;verticalAlign=top;aspect=fixed;imageAspect=0;image=data:image/png,iVBORw0KGgoAAAANSUhEUgAAADcAAAAtCAYAAAAKlvO7AAAAAXNSR0IArs4c6QAAAARnQU1BAACxjwv8YQUAAAAJcEhZcwAADsMAAA7DAcdvqGQAAAv2SURBVGhD7VnZb1xXHf7uvbN4Zjxjj51437I6ruM0raOkkASJBgF9g5TSgkIDVPwBIFUqeQJekJAq8USBF1QkoA1VEai0USsloS0yjUrVNFsTx/G+jGfsWe3ZZ/h9Z+akdjx2JilSQ8QnHd+Ze86c+/vOb782igLcpzDL1/sS/yf3vwqjUCjcdz5nGEbper8FFNKpilwqncbJl/+E0Ow0ZmZnMTi4D9/6znfLs/cmqiYXjyfw1FPfRHB2CsuxGDpb2/C7l/+MZrnqDe41rCS3YUCx22148cXf4xfP/xJ7HxrExMQkhoeHkS8UkM1mIf5aXnlvoiI5Ck3heQLeujoc+Pxh/OjZ5+DftAkjIzdkLofl5WWEw2F1vVexxixJLJVKIZ/PKxVzslg0EI9G8c7Z0+jp6UJHVxdMu1PWFFCQde3t7XA47KUN7hIrzenTYEOzTCaTShtpCSYkmZLPyeU4Mtk0PPV1ePONNzAzNYlURuZlRGNxLCyGy7++O2iBeM3lcv81c1+lOW4aDAaV1vR3/aCMmOlHH36IsWsfY/DAfjRKUEHRRDolpD0e9PbuwKc593ffPouTL/0RpmWDZXfA6/Whvr4efn8DLJsdXV2daG5uhtfnRZ2vTj2zElZqbhU5ampWQr4Gp/RinuiVK1fgthnwNzQgZ1pw1tQim87ILsBDD+2F3WaVf1kt9KMN/PTnz+P1s0Pw1ci3XBpmPguH7JdJLcMy8nDUuMTObPDIM2tra9HW3oYdux5A38CD2NPfB9MsEVqXXCKRkIg4oSY5qDVeNcmxsTFEQgHs27sbk3ML8DW2IJfNqOCzb98gPG4R4I5Aq6DfpvH9n72K15Z2wmsrwJNdhDMXg5WJwpaPwZaNwiXPMVJyLxcB8ilkM8tw2E2ExS1+/avfYmD3brXjSnKrfI43M5mMGtSivnLQF6m9QGAOra2tyInpBkNBtYb+mZe5O4WIIX9tiEaTGI8aqLHbkbOciLtaEfD1YarpCzK+jMnWr+Fq95MY3nYMo9u+h6ltxxHqPY7E5kdEw0U4bZUz2qq7NTU1ijnJUBscWviU+Nb58+fR2Niocl0ul0VMIiiDD0nfHUonHFiMIZR1w1YswCqIv0sUtvI5ODMJ2HJ5GHkbTPq/EE85mxDxbEOwfhBBWyfq6xrR3ib+XwGryFmWpQiSEIMKyVFwXqPRCCanphBcjCASiYhfpPD+e0NYWk7KgRRgE6e/U5SoATOBecSZVgyn+IkBUw7YlHqemi3Iorwpc0WbPMeCxFL5nJZ1GdjCo2hp9sPjqy/vtBpr9NnAYFEmxCsHidIsXeLU0eUsQtElOFxePLB7QDkyzdntlkhQxgo3rgqTQUk1hkPYFlA0hJQQ4ihB/J6+KUGFn0ncgAV7MQsszaOlpaO0rALWkNskVYjTKXYfjytz5KAm7eIP9ZLn/L5aZCTvXbt8QSJZElHRIsP1uJRmk5OTiEkNqguA24NrikJO/NliaK/WvC04kEJxeQ7beraW763FGnI0zf7+fhUpWV6RJKMoNddG2xafoNZq6xpUTmT9uWegX2zfJ+uWcPLkK0Jy6mbE2hhUUUbIJZB31Mq3Un69HcRWYIpFmakwOrd0le+uxRpyRJ3UkwcPHhQ/silSS0tLInhcmWhB7OXytVGMzQRx8NBhfPupJ1VC5W/6+nbh2LFjKppWi4z4bGBJfEx8VpJO+e7G4LnZU1HJuUBLZ+VgQlQkR/j9fjz88MPKTOmHrBiczhrRrKm0+/jRr+PIkUelepAnKFCwggQkhxrVIhSOYzIhZmYr0qPKdzdGwZD1iWn45FCbW+6CHH3GNE2lBRIk2ToxPZZEjY1+iZ7Rm6XZavBe9QFleiGCcEYCBE20SnIwTBjJEJrqa+EXedbDurstLi4qk3S73fD5fIogfa6np1uZ3+LigirHdB2q/Edtp0d1mJgPI1MQYaVOre538hyJnMl4EN1ikpZocT1U3I2+xahHn2OUpE+RXJe0Or29vdi1axf27t2rzHN6enoFwTvH9HwCWdONnKQAyWilmxugKFpz5iQAxeak9eop362MiuQYHWlyFJ5Rj+ZJog6HQ33mPc6xgGWFwoh6O6xnqFOS41Djkz1JrJS4ifWDiwFHIQkrHUNHtyZXeW1FcsxthPYp+h8/U6NM7ivzGDXLw7gdKPKtIhSyKYwu5pBxeGHnYUoktsrao4ZWoigHSsImw052CS4jjbbu7vLkHZBTIV8eRgKakE7ounLRpkht6kS/PvhwrRPKUhKGjW4qNIHNyTH5ZiJruZERE80bEoFvIadhSKtlLgXhcdnQ2d5evql3Xo11yVF4EuRVvy9hviMJPa8jKs2UPloJKali5oILGJkM4Pr4NEKRuFpPLEZiMOf/je0zf0Dn1EvYGvg7WmMX4ZWWhyjY3NIPSxxVai9FYaYLIxFAc0M9GiRqE58c22qsIqdPVJsgCfBKQqFQSJVX7BioqZUE+f5E+6lGTgphvn4ICrF4YlmIRHBl+AZOnX4X56/dUGuC8wHMz07CnY+iLXUVHaEz6J7+C7ZMvYqOiVdQN3cGnuSkkBNNiunmTJdERymcY7NSMG+Srr1Uz1amJvdFuDUGy4aVqYBBhNPUHDuB0dFRbN68GTt37lQBhSbJwXUka4gpcf2ikJqQgyBhu8wZot20tC4FmU9l8qrD2N7Vhnf+cQav/e2v8NT64JLCu0FSjttFbdkwNjqGdDINq1FMz98Ky9uDZEM/4GtB4V+/wQ++shM/fPZEWeJPwOdry6hIbmZmRr1uYLDQmiPBQCCA8fFx7Jaul2mBpNgikaDd7hDTjOPUqVOq30vLb6hJ/tZhtyT5l1oTw7KjzudVXkhrGL5yCcNXr6qDyIk/ezxuqYj8SKWl+5DqxSs1lllIoyjlWY2/GZ5NbYiNX8WPn3sOR48eLQm8AivJWT8RqE8rwKCxsLCgFnGxHhSWiZ0aZNNKYlxDvyN8IjQP5dKli6hxudRa5sgm0bZLvi8s0JeKaGpqRv/AAA488jk89tXH8MVHv4TevgF4pQoKhxexMD+HdCqOrJGDJVpMJKR/E9/zQPrMeASpZArHnn563SZ1Q83Rry5evKgIEbxSAwwaDCx8l0KtHTp0SFUwbJFIlJrmGBkZwdDQe5idm1NlWlA0RDP+xuOP49Dhw1IkO9R3OotLzsXl9ojZFhEIseq5hKF33xazHMGYWEk0HEFR/DebEwuQZ7D7Zyl4+vRp5SK3grJuSI63Ll++fDN/8buOmkzY9EcGF75q27NnjyLHUTJPMR9qVEI2X00wwtISiI6OUmNZkLbJknmmbIc0u6l0Blcl2ISiMdhr3IjLc2yWmPlCGDOTo/j4ykeYnhpHt+Q17sd9Tpw4IY1qi9pvJW5LjqB2aGI0OS7R/sPNGVyoQZJkYb1161alSa4luVJlY6mOwel0qG7CxntChPNFIUeC/Nfgufc/xOun3sS16zdgl7VNIvCDgwekju1Avd2J5HIE42PD4o9JVRGxDOTYv3+/6lZuRVXkdPDgQhLjoAboR9QoNUgz5ZW9HB/Iea1FfSD8PV9FmEy+Qp7EeUiMyENDQzhz9p/Ytn07ekQrJNfe2anMbYn7hxfUoXlrvejf3ade23fKPP19PVRFjr5C39FCanL6VR9NlCR1mmhqasKABAkKfP36dSUA/ZGHwUPglXsQurunGe/csUv5EAWKx6OiYSiybK3q/Y3YsWO7mP9a81sPVZHjw0lOE9PkeOpM4jqZa+HpZ88884wiS4Lnzp1TUZUgURIhqAnuRQG4R2d7BxrFvChEW0e7tFQ9aBJfdsl+n4CzJYFvh6rI0bfodwwkHBSIOY8ENUkOrUWuf+KJJ25GMG77wQcf4K233lJpxev1qgDAg+BamteWLVvQKcGhWe5zfi20aNURI6oiRyHod7oE01cS41Und61FBpcjR45gu5jUrZiTlEBT5XqaL6NeZTKfHlWRo6boG9okKRiJ6bpSE+V9mibfhB04cEAJ/lliFTnRyBpyJENT45XgD7R5cmjC7MIvXLiAw5KYSVK/ivgsoYkRhpx+Rc1VixdeeEFFxePHj6tgce8A+A+rImmxLI2yWAAAAABJRU5ErkJggg==;" parent="zww3sfRDonu8iNrRwF99-2" vertex="1">
          <mxGeometry x="225" y="455" width="48.89" height="40" as="geometry" />
        </mxCell>
        <mxCell id="1p00qoWbW6kCkAPDuXka-24" value="" style="shape=image;verticalLabelPosition=bottom;labelBackgroundColor=default;verticalAlign=top;aspect=fixed;imageAspect=0;image=data:image/png,iVBORw0KGgoAAAANSUhEUgAAADcAAAAtCAYAAAAKlvO7AAAAAXNSR0IArs4c6QAAAARnQU1BAACxjwv8YQUAAAAJcEhZcwAADsMAAA7DAcdvqGQAAAv2SURBVGhD7VnZb1xXHf7uvbN4Zjxjj51437I6ruM0raOkkASJBgF9g5TSgkIDVPwBIFUqeQJekJAq8USBF1QkoA1VEai0USsloS0yjUrVNFsTx/G+jGfsWe3ZZ/h9Z+akdjx2JilSQ8QnHd+Ze86c+/vOb782igLcpzDL1/sS/yf3vwqjUCjcdz5nGEbper8FFNKpilwqncbJl/+E0Ow0ZmZnMTi4D9/6znfLs/cmqiYXjyfw1FPfRHB2CsuxGDpb2/C7l/+MZrnqDe41rCS3YUCx22148cXf4xfP/xJ7HxrExMQkhoeHkS8UkM1mIf5aXnlvoiI5Ck3heQLeujoc+Pxh/OjZ5+DftAkjIzdkLofl5WWEw2F1vVexxixJLJVKIZ/PKxVzslg0EI9G8c7Z0+jp6UJHVxdMu1PWFFCQde3t7XA47KUN7hIrzenTYEOzTCaTShtpCSYkmZLPyeU4Mtk0PPV1ePONNzAzNYlURuZlRGNxLCyGy7++O2iBeM3lcv81c1+lOW4aDAaV1vR3/aCMmOlHH36IsWsfY/DAfjRKUEHRRDolpD0e9PbuwKc593ffPouTL/0RpmWDZXfA6/Whvr4efn8DLJsdXV2daG5uhtfnRZ2vTj2zElZqbhU5ampWQr4Gp/RinuiVK1fgthnwNzQgZ1pw1tQim87ILsBDD+2F3WaVf1kt9KMN/PTnz+P1s0Pw1ci3XBpmPguH7JdJLcMy8nDUuMTObPDIM2tra9HW3oYdux5A38CD2NPfB9MsEVqXXCKRkIg4oSY5qDVeNcmxsTFEQgHs27sbk3ML8DW2IJfNqOCzb98gPG4R4I5Aq6DfpvH9n72K15Z2wmsrwJNdhDMXg5WJwpaPwZaNwiXPMVJyLxcB8ilkM8tw2E2ExS1+/avfYmD3brXjSnKrfI43M5mMGtSivnLQF6m9QGAOra2tyInpBkNBtYb+mZe5O4WIIX9tiEaTGI8aqLHbkbOciLtaEfD1YarpCzK+jMnWr+Fq95MY3nYMo9u+h6ltxxHqPY7E5kdEw0U4bZUz2qq7NTU1ijnJUBscWviU+Nb58+fR2Niocl0ul0VMIiiDD0nfHUonHFiMIZR1w1YswCqIv0sUtvI5ODMJ2HJ5GHkbTPq/EE85mxDxbEOwfhBBWyfq6xrR3ib+XwGryFmWpQiSEIMKyVFwXqPRCCanphBcjCASiYhfpPD+e0NYWk7KgRRgE6e/U5SoATOBecSZVgyn+IkBUw7YlHqemi3Iorwpc0WbPMeCxFL5nJZ1GdjCo2hp9sPjqy/vtBpr9NnAYFEmxCsHidIsXeLU0eUsQtElOFxePLB7QDkyzdntlkhQxgo3rgqTQUk1hkPYFlA0hJQQ4ihB/J6+KUGFn0ncgAV7MQsszaOlpaO0rALWkNskVYjTKXYfjytz5KAm7eIP9ZLn/L5aZCTvXbt8QSJZElHRIsP1uJRmk5OTiEkNqguA24NrikJO/NliaK/WvC04kEJxeQ7beraW763FGnI0zf7+fhUpWV6RJKMoNddG2xafoNZq6xpUTmT9uWegX2zfJ+uWcPLkK0Jy6mbE2hhUUUbIJZB31Mq3Un69HcRWYIpFmakwOrd0le+uxRpyRJ3UkwcPHhQ/silSS0tLInhcmWhB7OXytVGMzQRx8NBhfPupJ1VC5W/6+nbh2LFjKppWi4z4bGBJfEx8VpJO+e7G4LnZU1HJuUBLZ+VgQlQkR/j9fjz88MPKTOmHrBiczhrRrKm0+/jRr+PIkUelepAnKFCwggQkhxrVIhSOYzIhZmYr0qPKdzdGwZD1iWn45FCbW+6CHH3GNE2lBRIk2ToxPZZEjY1+iZ7Rm6XZavBe9QFleiGCcEYCBE20SnIwTBjJEJrqa+EXedbDurstLi4qk3S73fD5fIogfa6np1uZ3+LigirHdB2q/Edtp0d1mJgPI1MQYaVOre538hyJnMl4EN1ikpZocT1U3I2+xahHn2OUpE+RXJe0Or29vdi1axf27t2rzHN6enoFwTvH9HwCWdONnKQAyWilmxugKFpz5iQAxeak9eop362MiuQYHWlyFJ5Rj+ZJog6HQ33mPc6xgGWFwoh6O6xnqFOS41Djkz1JrJS4ifWDiwFHIQkrHUNHtyZXeW1FcsxthPYp+h8/U6NM7ivzGDXLw7gdKPKtIhSyKYwu5pBxeGHnYUoktsrao4ZWoigHSsImw052CS4jjbbu7vLkHZBTIV8eRgKakE7ounLRpkht6kS/PvhwrRPKUhKGjW4qNIHNyTH5ZiJruZERE80bEoFvIadhSKtlLgXhcdnQ2d5evql3Xo11yVF4EuRVvy9hviMJPa8jKs2UPloJKali5oILGJkM4Pr4NEKRuFpPLEZiMOf/je0zf0Dn1EvYGvg7WmMX4ZWWhyjY3NIPSxxVai9FYaYLIxFAc0M9GiRqE58c22qsIqdPVJsgCfBKQqFQSJVX7BioqZUE+f5E+6lGTgphvn4ICrF4YlmIRHBl+AZOnX4X56/dUGuC8wHMz07CnY+iLXUVHaEz6J7+C7ZMvYqOiVdQN3cGnuSkkBNNiunmTJdERymcY7NSMG+Srr1Uz1amJvdFuDUGy4aVqYBBhNPUHDuB0dFRbN68GTt37lQBhSbJwXUka4gpcf2ikJqQgyBhu8wZot20tC4FmU9l8qrD2N7Vhnf+cQav/e2v8NT64JLCu0FSjttFbdkwNjqGdDINq1FMz98Ky9uDZEM/4GtB4V+/wQ++shM/fPZEWeJPwOdry6hIbmZmRr1uYLDQmiPBQCCA8fFx7Jaul2mBpNgikaDd7hDTjOPUqVOq30vLb6hJ/tZhtyT5l1oTw7KjzudVXkhrGL5yCcNXr6qDyIk/ezxuqYj8SKWl+5DqxSs1lllIoyjlWY2/GZ5NbYiNX8WPn3sOR48eLQm8AivJWT8RqE8rwKCxsLCgFnGxHhSWiZ0aZNNKYlxDvyN8IjQP5dKli6hxudRa5sgm0bZLvi8s0JeKaGpqRv/AAA488jk89tXH8MVHv4TevgF4pQoKhxexMD+HdCqOrJGDJVpMJKR/E9/zQPrMeASpZArHnn563SZ1Q83Rry5evKgIEbxSAwwaDCx8l0KtHTp0SFUwbJFIlJrmGBkZwdDQe5idm1NlWlA0RDP+xuOP49Dhw1IkO9R3OotLzsXl9ojZFhEIseq5hKF33xazHMGYWEk0HEFR/DebEwuQZ7D7Zyl4+vRp5SK3grJuSI63Ll++fDN/8buOmkzY9EcGF75q27NnjyLHUTJPMR9qVEI2X00wwtISiI6OUmNZkLbJknmmbIc0u6l0Blcl2ISiMdhr3IjLc2yWmPlCGDOTo/j4ykeYnhpHt+Q17sd9Tpw4IY1qi9pvJW5LjqB2aGI0OS7R/sPNGVyoQZJkYb1161alSa4luVJlY6mOwel0qG7CxntChPNFIUeC/Nfgufc/xOun3sS16zdgl7VNIvCDgwekju1Avd2J5HIE42PD4o9JVRGxDOTYv3+/6lZuRVXkdPDgQhLjoAboR9QoNUgz5ZW9HB/Iea1FfSD8PV9FmEy+Qp7EeUiMyENDQzhz9p/Ytn07ekQrJNfe2anMbYn7hxfUoXlrvejf3ade23fKPP19PVRFjr5C39FCanL6VR9NlCR1mmhqasKABAkKfP36dSUA/ZGHwUPglXsQurunGe/csUv5EAWKx6OiYSiybK3q/Y3YsWO7mP9a81sPVZHjw0lOE9PkeOpM4jqZa+HpZ88884wiS4Lnzp1TUZUgURIhqAnuRQG4R2d7BxrFvChEW0e7tFQ9aBJfdsl+n4CzJYFvh6rI0bfodwwkHBSIOY8ENUkOrUWuf+KJJ25GMG77wQcf4K233lJpxev1qgDAg+BamteWLVvQKcGhWe5zfi20aNURI6oiRyHod7oE01cS41Und61FBpcjR45gu5jUrZiTlEBT5XqaL6NeZTKfHlWRo6boG9okKRiJ6bpSE+V9mibfhB04cEAJ/lliFTnRyBpyJENT45XgD7R5cmjC7MIvXLiAw5KYSVK/ivgsoYkRhpx+Rc1VixdeeEFFxePHj6tgce8A+A+rImmxLI2yWAAAAABJRU5ErkJggg==;" parent="zww3sfRDonu8iNrRwF99-2" vertex="1">
          <mxGeometry x="225" y="620" width="48.89" height="40" as="geometry" />
        </mxCell>
        <mxCell id="xwUSxEBxOazn-H6CZx01-5" style="edgeStyle=orthogonalEdgeStyle;rounded=0;orthogonalLoop=1;jettySize=auto;html=1;entryX=0.5;entryY=0;entryDx=0;entryDy=0;" edge="1" parent="zww3sfRDonu8iNrRwF99-2" source="xwUSxEBxOazn-H6CZx01-1" target="zww3sfRDonu8iNrRwF99-13">
          <mxGeometry relative="1" as="geometry" />
        </mxCell>
        <mxCell id="xwUSxEBxOazn-H6CZx01-1" value="" style="rhombus;whiteSpace=wrap;html=1;fillColor=#d5e8d4;strokeColor=#82b366;" vertex="1" parent="zww3sfRDonu8iNrRwF99-2">
          <mxGeometry x="162.99" y="320" width="40" height="40" as="geometry" />
        </mxCell>
        <mxCell id="xwUSxEBxOazn-H6CZx01-2" value="Hay Stock?" style="text;html=1;align=center;verticalAlign=middle;resizable=0;points=[];autosize=1;strokeColor=none;fillColor=none;" vertex="1" parent="zww3sfRDonu8iNrRwF99-2">
          <mxGeometry x="190" y="310" width="80" height="30" as="geometry" />
        </mxCell>
        <mxCell id="xwUSxEBxOazn-H6CZx01-8" value="Si" style="text;html=1;align=center;verticalAlign=middle;resizable=0;points=[];autosize=1;strokeColor=none;fillColor=none;" vertex="1" parent="zww3sfRDonu8iNrRwF99-2">
          <mxGeometry x="177.99" y="350" width="30" height="30" as="geometry" />
        </mxCell>
        <mxCell id="xwUSxEBxOazn-H6CZx01-10" value="No" style="text;html=1;align=center;verticalAlign=middle;resizable=0;points=[];autosize=1;strokeColor=none;fillColor=none;" vertex="1" parent="zww3sfRDonu8iNrRwF99-2">
          <mxGeometry x="172.99" y="430" width="40" height="30" as="geometry" />
        </mxCell>
        <mxCell id="xwUSxEBxOazn-H6CZx01-11" value="Si" style="text;html=1;align=center;verticalAlign=middle;resizable=0;points=[];autosize=1;strokeColor=none;fillColor=none;" vertex="1" parent="zww3sfRDonu8iNrRwF99-2">
          <mxGeometry x="142.99" y="398" width="30" height="30" as="geometry" />
        </mxCell>
        <mxCell id="xwUSxEBxOazn-H6CZx01-9" value="No" style="text;html=1;align=center;verticalAlign=middle;resizable=0;points=[];autosize=1;strokeColor=none;fillColor=none;" vertex="1" parent="zww3sfRDonu8iNrRwF99-2">
          <mxGeometry x="137.99" y="318" width="40" height="30" as="geometry" />
        </mxCell>
        <mxCell id="A-wrTrzy99tVwkTwBN3d-22" style="edgeStyle=orthogonalEdgeStyle;rounded=0;orthogonalLoop=1;jettySize=auto;html=1;exitX=0.5;exitY=0.84;exitDx=0;exitDy=0;exitPerimeter=0;entryX=0;entryY=0.5;entryDx=0;entryDy=0;" parent="1" source="zww3sfRDonu8iNrRwF99-9" target="zww3sfRDonu8iNrRwF99-11" edge="1">
          <mxGeometry relative="1" as="geometry">
            <Array as="points">
              <mxPoint x="150" y="310" />
            </Array>
          </mxGeometry>
        </mxCell>
        <mxCell id="1p00qoWbW6kCkAPDuXka-18" style="edgeStyle=orthogonalEdgeStyle;rounded=0;orthogonalLoop=1;jettySize=auto;html=1;entryX=1;entryY=0.5;entryDx=0;entryDy=0;" parent="1" source="zww3sfRDonu8iNrRwF99-38" target="e9mQdE9O3U6goVZSnutH-5" edge="1">
          <mxGeometry relative="1" as="geometry">
            <Array as="points">
              <mxPoint x="770" y="730" />
            </Array>
          </mxGeometry>
        </mxCell>
        <mxCell id="1p00qoWbW6kCkAPDuXka-19" style="edgeStyle=orthogonalEdgeStyle;rounded=0;orthogonalLoop=1;jettySize=auto;html=1;entryX=0;entryY=0.5;entryDx=0;entryDy=0;" parent="1" source="zww3sfRDonu8iNrRwF99-30" target="e9mQdE9O3U6goVZSnutH-5" edge="1">
          <mxGeometry relative="1" as="geometry">
            <Array as="points">
              <mxPoint x="152" y="730" />
            </Array>
          </mxGeometry>
        </mxCell>
        <mxCell id="1p00qoWbW6kCkAPDuXka-21" style="edgeStyle=orthogonalEdgeStyle;rounded=0;orthogonalLoop=1;jettySize=auto;html=1;entryX=0.5;entryY=0;entryDx=0;entryDy=0;" parent="1" source="e9mQdE9O3U6goVZSnutH-47" target="e9mQdE9O3U6goVZSnutH-49" edge="1">
          <mxGeometry relative="1" as="geometry" />
        </mxCell>
        <mxCell id="xwUSxEBxOazn-H6CZx01-6" style="edgeStyle=orthogonalEdgeStyle;rounded=0;orthogonalLoop=1;jettySize=auto;html=1;entryX=0.045;entryY=0.45;entryDx=0;entryDy=0;entryPerimeter=0;" edge="1" parent="1" source="xwUSxEBxOazn-H6CZx01-1" target="zww3sfRDonu8iNrRwF99-9">
          <mxGeometry relative="1" as="geometry">
            <Array as="points">
              <mxPoint x="80" y="400" />
              <mxPoint x="80" y="217" />
            </Array>
          </mxGeometry>
        </mxCell>
        <mxCell id="xwUSxEBxOazn-H6CZx01-7" style="edgeStyle=orthogonalEdgeStyle;rounded=0;orthogonalLoop=1;jettySize=auto;html=1;entryX=0.07;entryY=0.25;entryDx=0;entryDy=0;entryPerimeter=0;exitX=0;exitY=0.5;exitDx=0;exitDy=0;" edge="1" parent="1" source="zww3sfRDonu8iNrRwF99-13" target="zww3sfRDonu8iNrRwF99-9">
          <mxGeometry relative="1" as="geometry">
            <Array as="points">
              <mxPoint x="70" y="480" />
              <mxPoint x="70" y="205" />
            </Array>
          </mxGeometry>
        </mxCell>
      </root>
    </mxGraphModel>
  </diagram>
</mxfile>
